<svg width="130" height="130" viewBox="0 0 130 130" fill="none" xmlns="http://www.w3.org/2000/svg">
<rect width="130" height="130" rx="8.33778" fill="#11110D"/>
<path d="M93.6456 32.7804L78.079 23.6443C77.7168 23.4317 77.2681 23.4312 76.9055 23.643L61.3479 32.7293C60.9914 32.9375 60.7722 33.3194 60.7722 33.7322V52.0437C60.7722 52.4557 60.9905 52.8368 61.3457 53.0453L76.9078 62.1788L75.6623 64.301L76.9078 62.1788C77.2708 62.3918 77.7206 62.3918 78.0835 62.1788L93.6456 53.0453C94.0009 52.8368 94.2192 52.4557 94.2192 52.0437V33.782C94.2192 33.3701 94.0009 32.989 93.6456 32.7804Z" stroke="#DBB867" stroke-width="5" stroke-linecap="round"/>
<path d="M26.2329 20.4032L43.6483 30.6244C44.7684 31.2817 45.4564 32.4833 45.4564 33.782V52.0437C45.4564 53.3425 44.7684 54.544 43.6483 55.2014L26.2329 65.4226" stroke="#DBB867" stroke-width="5" stroke-linecap="round"/>
<path d="M103.839 64.7097L86.4367 74.828C85.3094 75.4835 84.6157 76.6891 84.6157 77.9932V98.2957" stroke="#DBB867" stroke-width="5" stroke-linecap="round"/>
<path d="M53.1683 105.787L54.4337 107.943L53.1683 105.787L68.7304 96.6537L69.9958 98.8098L68.7304 96.6537C69.0856 96.4452 69.3039 96.0641 69.3039 95.6521V77.3904C69.3039 76.9785 69.0856 76.5974 68.7304 76.3888L53.1637 67.2527C52.8015 67.0401 52.3528 67.0396 51.9902 67.2514L36.4326 76.3377C36.0761 76.5459 35.8569 76.9277 35.8569 77.3406V95.6521C35.8569 96.0641 36.0752 96.4452 36.4305 96.6537L51.9926 105.787C52.3555 106 52.8053 106 53.1683 105.787Z" stroke="#DBB867" stroke-width="5" stroke-linecap="round"/>
</svg>
